<!DOCTYPE svg PUBLIC "-//W3C//DTD SVG 1.1//EN" "http://www.w3.org/Graphics/SVG/1.1/DTD/svg11.dtd">
<!-- Uploaded to: SVG Repo, www.svgrepo.com, Transformed by: SVG Repo Mixer Tools -->
<svg fill="#ffffff" height="800px" width="800px" version="1.1" id="Layer_1" xmlns="http://www.w3.org/2000/svg" xmlns:xlink="http://www.w3.org/1999/xlink" viewBox="0 0 512 512" xml:space="preserve" stroke="#ffffff">
<g id="SVGRepo_bgCarrier" stroke-width="0"/>
<g id="SVGRepo_tracerCarrier" stroke-linecap="round" stroke-linejoin="round"/>
<g id="SVGRepo_iconCarrier"> <g> <g> <path d="M461.913,86.261H262.915l54.978-54.978c6.52-6.52,6.52-17.091,0-23.611c-6.519-6.52-17.091-6.52-23.611,0l-71.673,71.673 L150.935,7.674c-6.519-6.52-17.091-6.52-23.611,0s-6.52,17.091,0,23.611l54.978,54.977H50.087C22.469,86.261,0,108.73,0,136.348 v322.783c0,27.618,22.469,50.087,50.087,50.087h411.826c27.618,0,50.087-22.469,50.087-50.087V136.348 C512,108.73,489.531,86.261,461.913,86.261z M478.609,459.131c0,9.206-7.49,16.696-16.696,16.696H50.087 c-9.206,0-16.696-7.49-16.696-16.696V136.348c0-9.206,7.49-16.696,16.696-16.696h411.826c9.206,0,16.696,7.49,16.696,16.696 V459.131z"/> </g> </g> <g> <g> <path d="M328.348,153.044H116.87c-27.618,0-50.087,22.469-50.087,50.087v189.217c0,27.618,22.469,50.087,50.087,50.087h211.478 c27.618,0,50.087-22.469,50.087-50.087V203.131C378.435,175.513,355.966,153.044,328.348,153.044z M345.043,392.348 c0,9.206-7.49,16.696-16.696,16.696H116.87c-9.206,0-16.696-7.49-16.696-16.696V203.131c0-9.206,7.49-16.696,16.696-16.696 h211.478c9.206,0,16.696,7.49,16.696,16.696V392.348z"/> </g> </g> <g> <g> <path d="M428.522,153.044c-9.22,0-16.696,7.475-16.696,16.696v27.826c0,9.22,7.475,16.696,16.696,16.696 s16.696-7.475,16.696-16.696v-27.826C445.217,160.519,437.742,153.044,428.522,153.044z"/> </g> </g> <g> <g> <path d="M428.522,247.652c-9.22,0-16.696,7.475-16.696,16.696v27.826c0,9.22,7.475,16.696,16.696,16.696 s16.696-7.475,16.696-16.696v-27.826C445.217,255.128,437.742,247.652,428.522,247.652z"/> </g> </g> <g> <g> <circle cx="428.522" cy="358.957" r="16.696"/> </g> </g> <g> <g> <circle cx="428.522" cy="425.739" r="16.696"/> </g> </g> </g>
</svg>